<?xml version="1.0" encoding="utf-8"?>
<?xml-stylesheet type="text/xsl" href="rss1.xsl"?>
<rss version="2.0" xmlns:atom="http://www.w3.org/2005/Atom" xmlns:content="http://purl.org/rss/1.0/modules/content/" xmlns:dc="http://purl.org/dc/elements/1.1/" xmlns:media="http://search.yahoo.com/mrss/">
<channel>
 <title>Getty</title>
 <link>http://www.gettyimg.com/</link>
 <atom:link href="http://www.gettyimg.com/" rel="self" type="application/rss+xml" />

 
                <item>
                <title><![CDATA[【Instrumentals / Karaoke (lossless)】Ethel Cain - Preacher’s Daughter (Official Instrumentals + A Capella)]]></title>
                <link><![CDATA[https://sharemania.us/threads/ethel-cain-preacher%E2%80%99s-daughter-official-instrumentals-a-capella.233383/]]></link>
                <description><![CDATA[<article>
<blockquote class="messageText SelectQuoteContainer ugc baseHtml">
Ethel Cain - Preacher’s Daughter (Official Instrumentals + A Capella)<br>
<img src="https://i.scdn.co/image/ab67616d0000b273ccd1887cc78b0bd55f54bbe1" class="bbCodeImage LbImage" alt="[​IMG]" data-url="https://i.scdn.co/image/ab67616d0000b273ccd1887cc78b0bd55f54bbe1" style=""> <br>
<br>
Instrumentals <br>
<div class="bbCodeBlock bbCodeVfcHH HiddenContent">
<div class="attribution type">Hidden Content:</div>
<blockquote>You must reply before you can see the hidden data contained here.</blockquote>
</div>A Capella<br>
<div class="bbCodeBlock bbCodeVfcHH HiddenContent">
<div class="attribution type">Hidden Content:</div>
<blockquote>You must reply before you can see the hidden data contained here.</blockquote>
</div>MediaInfo:<br>
Instrumentals<br>
01 - EC_Family Tree Intro_BECKER MASTER.flac<br>
Format : FLAC<br>
Format/Info : Free Lossless Audio Codec<br>
File size : 33.7 MiB<br>
Duration : 3 min 41 s<br>
Overall bit rate mode : Variable<br>
Overall bit rate : 1 275 kb/s<br>
Album : Preacher's Daughter (Instrumentals)<br>
Album/Performer : Ethel Cain<br>
Track name : Family Tree (Intro) (Instrumental)<br>
Track name/Position : 01<br>
Performer : Ethel Cain<br>
Genre : Instrumental<br>
Recorded date : 2022<br>
Writing application : fre:ac v1.1.5<br>
Cover : Yes<br>
Cover type : Cover (front)<br>
Cover MIME : image/jpeg<br>
<br>
Audio<br>
Format : FLAC<br>
Format/Info : Free Lossless Audio Codec<br>
Duration : 3 min 41 s<br>
Bit rate mode : Variable<br>
Bit rate : 1 265 kb/s<br>
Channel(s) : 2 channels<br>
Channel layout : L R<br>
Sampling rate : 44.1 kHz<br>
Bit depth : 24 bits<br>
Compression mode : Lossless<br>
Stream size : 33.4 MiB (99%)<br>
Writing library : libFLAC 1.3.3 (2019-08-04)<br>
<br>
02 - EC_American Teenager (Mix)_BECKER MASTER 2.flac<br>
Format : FLAC<br>
Format/Info : Free Lossless Audio Codec<br>
File size : 49.4 MiB<br>
Duration : 4 min 18 s<br>
Overall bit rate mode : Variable<br>
Overall bit rate : 1 603 kb/s<br>
Album : Preacher's Daughter (Instrumentals)<br>
Album/Performer : Ethel Cain<br>
Track name : American Teenager (Instrumental)<br>
Track name/Position : 02<br>
Performer : Ethel Cain<br>
Genre : Instrumental<br>
Recorded date : 2022<br>
Writing application : fre:ac v1.1.5<br>
Cover : Yes<br>
Cover type : Cover (front)<br>
Cover MIME : image/jpeg<br>
<br>
Audio<br>
Format : FLAC<br>
Format/Info : Free Lossless Audio Codec<br>
Duration : 4 min 18 s<br>
Bit rate mode : Variable<br>
Bit rate : 1 594 kb/s<br>
Channel(s) : 2 channels<br>
Channel layout : L R<br>
Sampling rate : 44.1 kHz<br>
Bit depth : 24 bits<br>
Compression mode : Lossless<br>
Stream size : 49.1 MiB (99%)<br>
Writing library : libFLAC 1.3.3 <br>
<br>
03 - EC_House In Nebraska_BECKER MASTER.flac<br>
Format : FLAC<br>
Format/Info : Free Lossless Audio Codec<br>
File size : 72.1 MiB<br>
Duration : 7 min 46 s<br>
Overall bit rate mode : Variable<br>
Overall bit rate : 1 296 kb/s<br>
Album : Preacher's Daughter (Instrumentals)<br>
Album/Performer : Ethel Cain<br>
Track name : A House in Nebraska (Instrumental)<br>
Track name/Position : 03<br>
Performer : Ethel Cain<br>
Genre : Instrumental<br>
Recorded date : 2022<br>
Writing application : fre:ac v1.1.5<br>
Cover : Yes<br>
Cover type : Cover (front)<br>
Cover MIME : image/jpeg<br>
<br>
Audio<br>
Format : FLAC<br>
Format/Info : Free Lossless Audio Codec<br>
Duration : 7 min 46 s<br>
Bit rate mode : Variable<br>
Bit rate : 1 291 kb/s<br>
Channel(s) : 2 channels<br>
Channel layout : L R<br>
Sampling rate : 44.1 kHz<br>
Bit depth : 24 bits<br>
Compression mode : Lossless<br>
Stream size : 71.8 MiB (100%)<br>
Writing library : libFLAC 1.3.3 <br>
<br>
04 - EC_Western Nights_BECKER MASTER.flac<br>
Format : FLAC<br>
Format/Info : Free Lossless Audio Codec<br>
File size : 49.8 MiB<br>
Duration : 6 min 5 s<br>
Overall bit rate mode : Variable<br>
Overall bit rate : 1 145 kb/s<br>
Album : Preacher's Daughter (Instrumentals)<br>
Album/Performer : Ethel Cain<br>
Track name : Western Nights (Instrumental)<br>
Track name/Position : 04<br>
Performer : Ethel Cain<br>
Genre : Instrumental<br>
Recorded date : 2022<br>
Writing application : fre:ac v1.1.5<br>
Cover : Yes<br>
Cover type : Cover (front)<br>
Cover MIME : image/jpeg<br>
<br>
Audio<br>
Format : FLAC<br>
Format/Info : Free Lossless Audio Codec<br>
Duration : 6 min 5 s<br>
Bit rate mode : Variable<br>
Bit rate : 1 139 kb/s<br>
Channel(s) : 2 channels<br>
Channel layout : L R<br>
Sampling rate : 44.1 kHz<br>
Bit depth : 24 bits<br>
Compression mode : Lossless<br>
Stream size : 49.6 MiB (99%)<br>
Writing library : libFLAC 1.3.3 <br>
<br>
05 - EC_Family Tree_BECKER MASTER.flac<br>
Format : FLAC<br>
Format/Info : Free Lossless Audio Codec<br>
File size : 68.2 MiB<br>
Duration : 7 min 10 s<br>
Overall bit rate mode : Variable<br>
Overall bit rate : 1 329 kb/s<br>
Album : Preacher's Daughter (Instrumentals)<br>
Album/Performer : Ethel Cain<br>
Track name : Family Tree (Instrumental)<br>
Track name/Position : 05<br>
Performer : Ethel Cain<br>
Genre : Instrumental<br>
Recorded date : 2022<br>
Writing application : fre:ac v1.1.5<br>
Cover : Yes<br>
Cover type : Cover (front)<br>
Cover MIME : image/jpeg<br>
<br>
Audio<br>
Format : FLAC<br>
Format/Info : Free Lossless Audio Codec<br>
Duration : 7 min 10 s<br>
Bit rate mode : Variable<br>
Bit rate : 1 323 kb/s<br>
Channel(s) : 2 channels<br>
Channel layout : L R<br>
Sampling rate : 44.1 kHz<br>
Bit depth : 24 bits<br>
Compression mode : Lossless<br>
Stream size : 67.9 MiB (100%)<br>
Writing library : libFLAC 1.3.3 <br>
<br>
06 - EC_Hard Times_BECKER MASTER.flac<br>
Format : FLAC<br>
Format/Info : Free Lossless Audio Codec<br>
File size : 52.9 MiB<br>
Duration : 5 min 3 s<br>
Overall bit rate mode : Variable<br>
Overall bit rate : 1 466 kb/s<br>
Album : Preacher's Daughter (Instrumentals)<br>
Album/Performer : Ethel Cain<br>
Track name : Hard Times (Instrumental)<br>
Track name/Position : 06<br>
Performer : Ethel Cain<br>
Genre : Instrumental<br>
Recorded date : 2022<br>
Writing application : fre:ac v1.1.5<br>
Cover : Yes<br>
Cover type : Cover (front)<br>
Cover MIME : image/jpeg<br>
<br>
Audio<br>
Format : FLAC<br>
Format/Info : Free Lossless Audio Codec<br>
Duration : 5 min 3 s<br>
Bit rate mode : Variable<br>
Bit rate : 1 458 kb/s<br>
Channel(s) : 2 channels<br>
Channel layout : L R<br>
Sampling rate : 44.1 kHz<br>
Bit depth : 24 bits<br>
Compression mode : Lossless<br>
Stream size : 52.7 MiB (99%)<br>
Writing library : libFLAC 1.3.3 <br>
<br>
07 - EC_Thoroughfare_BECKER MASTER.flac<br>
Format : FLAC<br>
Format/Info : Free Lossless Audio Codec<br>
File size : 89.9 MiB<br>
Duration : 9 min 27 s<br>
Overall bit rate mode : Variable<br>
Overall bit rate : 1 328 kb/s<br>
Album : Preacher's Daughter (Instrumentals)<br>
Album/Performer : Ethel Cain<br>
Track name : Thoroughfare (Instrumental)<br>
Track name/Position : 07<br>
Performer : Ethel Cain<br>
Genre : Instrumental<br>
Recorded date : 2022<br>
Writing application : fre:ac v1.1.5<br>
Cover : Yes<br>
Cover type : Cover (front)<br>
Cover MIME : image/jpeg<br>
<br>
Audio<br>
Format : FLAC<br>
Format/Info : Free Lossless Audio Codec<br>
Duration : 9 min 27 s<br>
Bit rate mode : Variable<br>
Bit rate : 1 324 kb/s<br>
Channel(s) : 2 channels<br>
Channel layout : L R<br>
Sampling rate : 44.1 kHz<br>
Bit depth : 24 bits<br>
Compression mode : Lossless<br>
Stream size : 89.6 MiB (100%)<br>
Writing library : libFLAC 1.3.3 <br>
<br>
08 - EC_Gibson Girl (GG Mix Feb1)_BECKER MASTER.flac<br>
Format : FLAC<br>
Format/Info : Free Lossless Audio Codec<br>
File size : 53.8 MiB<br>
Duration : 5 min 42 s<br>
Overall bit rate mode : Variable<br>
Overall bit rate : 1 320 kb/s<br>
Album : Preacher's Daughter (Instrumentals)<br>
Album/Performer : Ethel Cain<br>
Track name : Gibson Girl (Instrumental)<br>
Track name/Position : 08<br>
Performer : Ethel Cain<br>
Genre : Instrumental<br>
Recorded date : 2022<br>
Writing application : fre:ac v1.1.5<br>
Cover : Yes<br>
Cover type : Cover (front)<br>
Cover MIME : image/jpeg<br>
<br>
Audio<br>
Format : FLAC<br>
Format/Info : Free Lossless Audio Codec<br>
Duration : 5 min 42 s<br>
Bit rate mode : Variable<br>
Bit rate : 1 314 kb/s<br>
Channel(s) : 2 channels<br>
Channel layout : L R<br>
Sampling rate : 44.1 kHz<br>
Bit depth : 24 bits<br>
Compression mode : Lossless<br>
Stream size : 53.6 MiB (99%)<br>
Writing library : libFLAC 1.3.3 <br>
<br>
09 - EC_Ptolemaea_BECKER MASTER.flac<br>
Format : FLAC<br>
Format/Info : Free Lossless Audio Codec<br>
File size : 57.8 MiB<br>
Duration : 6 min 23 s<br>
Overall bit rate mode : Variable<br>
Overall bit rate : 1 262 kb/s<br>
Album : Preacher's Daughter (Instrumentals)<br>
Album/Performer : Ethel Cain<br>
Track name : Ptolemaea (Instrumental)<br>
Track name/Position : 09<br>
Performer : Ethel Cain<br>
Genre : Instrumental<br>
Recorded date : 2022<br>
Writing application : fre:ac v1.1.5<br>
Cover : Yes<br>
Cover type : Cover (front)<br>
Cover MIME : image/jpeg<br>
<br>
Audio<br>
Format : FLAC<br>
Format/Info : Free Lossless Audio Codec<br>
Duration : 6 min 23 s<br>
Bit rate mode : Variable<br>
Bit rate : 1 256 kb/s<br>
Channel(s) : 2 channels<br>
Channel layout : L R<br>
Sampling rate : 44.1 kHz<br>
Bit depth : 24 bits<br>
Compression mode : Lossless<br>
Stream size : 57.5 MiB (100%)<br>
Writing library : libFLAC 1.3.3 <br>
<br>
10 - EC_August Underground_BECKER MASTER.flac<br>
Format : FLAC<br>
Format/Info : Free Lossless Audio Codec<br>
File size : 30.0 MiB<br>
Duration : 3 min 40 s<br>
Overall bit rate mode : Variable<br>
Overall bit rate : 1 141 kb/s<br>
Album : Preacher's Daughter (Instrumentals)<br>
Album/Performer : Ethel Cain<br>
Track name : August Underground (Instrumental)<br>
Track name/Position : 10<br>
Performer : Ethel Cain<br>
Genre : Instrumental<br>
Recorded date : 2022<br>
Writing application : fre:ac v1.1.5<br>
Cover : Yes<br>
Cover type : Cover (front)<br>
Cover MIME : image/jpeg<br>
<br>
Audio<br>
Format : FLAC<br>
Format/Info : Free Lossless Audio Codec<br>
Duration : 3 min 40 s<br>
Bit rate mode : Variable<br>
Bit rate : 1 130 kb/s<br>
Channel(s) : 2 channels<br>
Channel layout : L R<br>
Sampling rate : 44.1 kHz<br>
Bit depth : 24 bits<br>
Compression mode : Lossless<br>
Stream size : 29.7 MiB (99%)<br>
Writing library : libFLAC 1.3.3 <br>
<br>
11 - EC_Televangelism_BECKER MASTER.flac<br>
Format : FLAC<br>
Format/Info : Free Lossless Audio Codec<br>
File size : 25.4 MiB<br>
Duration : 3 min 3 s<br>
Overall bit rate mode : Variable<br>
Overall bit rate : 1 157 kb/s<br>
Album : Preacher's Daughter (Instrumentals)<br>
Album/Performer : Ethel Cain<br>
Track name : Televangelism (Instrumental)<br>
Track name/Position : 11<br>
Performer : Ethel Cain<br>
Genre : Instrumental<br>
Recorded date : 2022<br>
Writing application : fre:ac v1.1.5<br>
Cover : Yes<br>
Cover type : Cover (front)<br>
Cover MIME : image/jpeg<br>
<br>
Audio<br>
Format : FLAC<br>
Format/Info : Free Lossless Audio Codec<br>
Duration : 3 min 3 s<br>
Bit rate mode : Variable<br>
Bit rate : 1 145 kb/s<br>
Channel(s) : 2 channels<br>
Channel layout : L R<br>
Sampling rate : 44.1 kHz<br>
Bit depth : 24 bits<br>
Compression mode : Lossless<br>
Stream size : 25.1 MiB (99%)<br>
Writing library : libFLAC 1.3.3 <br>
<br>
12 - EC_Sun Bleached Files_BECKER MASTER 3 (DeClicked).flac<br>
Format : FLAC<br>
Format/Info : Free Lossless Audio Codec<br>
File size : 78.5 MiB<br>
Duration : 7 min 36 s<br>
Overall bit rate mode : Variable<br>
Overall bit rate : 1 443 kb/s<br>
Album : Preacher's Daughter (Instrumentals)<br>
Album/Performer : Ethel Cain<br>
Track name : Sun Bleached Files (Instrumental)<br>
Track name/Position : 12<br>
Performer : Ethel Cain<br>
Genre : Instrumental<br>
Recorded date : 2022<br>
Writing application : fre:ac v1.1.5<br>
Cover : Yes<br>
Cover type : Cover (front)<br>
Cover MIME : image/jpeg<br>
<br>
Audio<br>
Format : FLAC<br>
Format/Info : Free Lossless Audio Codec<br>
Duration : 7 min 36 s<br>
Bit rate mode : Variable<br>
Bit rate : 1 438 kb/s<br>
Channel(s) : 2 channels<br>
Channel layout : L R<br>
Sampling rate : 44.1 kHz<br>
Bit depth : 24 bits<br>
Compression mode : Lossless<br>
Stream size : 78.2 MiB (100%)<br>
Writing library : libFLAC 1.3.3 <br>
<br>
13 - EC_Strangers_BECKER MASTER 2.flac<br>
Format : FLAC<br>
Format/Info : Free Lossless Audio Codec<br>
File size : 54.6 MiB<br>
Duration : 5 min 44 s<br>
Overall bit rate mode : Variable<br>
Overall bit rate : 1 329 kb/s<br>
Album : Preacher's Daughter (Instrumentals)<br>
Album/Performer : Ethel Cain<br>
Track name : Strangers (Instrumental)<br>
Track name/Position : 13<br>
Performer : Ethel Cain<br>
Genre : Instrumental<br>
Recorded date : 2022<br>
Writing application : fre:ac v1.1.5<br>
Cover : Yes<br>
Cover type : Cover (front)<br>
Cover MIME : image/jpeg<br>
<br>
Audio<br>
Format : FLAC<br>
Format/Info : Free Lossless Audio Codec<br>
Duration : 5 min 44 s<br>
Bit rate mode : Variable<br>
Bit rate : 1 322 kb/s<br>
Channel(s) : 2 channels<br>
Channel layout : L R<br>
Sampling rate : 44.1 kHz<br>
Bit depth : 24 bits<br>
Compression mode : Lossless<br>
Stream size : 54.3 MiB (99%)<br>
Writing library : libFLAC 1.3.3 <br>
<br>
A Cappella<br>
01 - EC_Family Tree Intro_BECKER MASTER.flac<br>
Format : FLAC<br>
Format/Info : Free Lossless Audio Codec<br>
File size : 32.7 MiB<br>
Duration : 3 min 41 s<br>
Overall bit rate mode : Variable<br>
Overall bit rate : 1 240 kb/s<br>
Album : Preacher's Daughter (A Capella)<br>
Album/Performer : Ethel Cain<br>
Track name : Family Tree (Intro) (A Capella)<br>
Track name/Position : 01<br>
Performer : Ethel Cain<br>
Genre : A Cappella<br>
Recorded date : 2022<br>
Writing application : fre:ac v1.1.5<br>
Cover : Yes<br>
Cover type : Cover (front)<br>
Cover MIME : image/jpeg<br>
<br>
Audio<br>
Format : FLAC<br>
Format/Info : Free Lossless Audio Codec<br>
Duration : 3 min 41 s<br>
Bit rate mode : Variable<br>
Bit rate : 1 229 kb/s<br>
Channel(s) : 2 channels<br>
Channel layout : L R<br>
Sampling rate : 44.1 kHz<br>
Bit depth : 24 bits<br>
Compression mode : Lossless<br>
Stream size : 32.4 MiB (99%)<br>
Writing library : libFLAC 1.3.3 <br>
<br>
A Capella<br>
01 - EC_Family Tree Intro_BECKER MASTER.flac<br>
Format : FLAC<br>
Format/Info : Free Lossless Audio Codec<br>
File size : 32.7 MiB<br>
Duration : 3 min 41 s<br>
Overall bit rate mode : Variable<br>
Overall bit rate : 1 240 kb/s<br>
Album : Preacher's Daughter (A Capella)<br>
Album/Performer : Ethel Cain<br>
Track name : Family Tree (Intro) (A Capella)<br>
Track name/Position : 01<br>
Performer : Ethel Cain<br>
Genre : A Cappella<br>
Recorded date : 2022<br>
Writing application : fre:ac v1.1.5<br>
Cover : Yes<br>
Cover type : Cover (front)<br>
Cover MIME : image/jpeg<br>
<br>
Audio<br>
Format : FLAC<br>
Format/Info : Free Lossless Audio Codec<br>
Duration : 3 min 41 s<br>
Bit rate mode : Variable<br>
Bit rate : 1 229 kb/s<br>
Channel(s) : 2 channels<br>
Channel layout : L R<br>
Sampling rate : 44.1 kHz<br>
Bit depth : 24 bits<br>
Compression mode : Lossless<br>
Stream size : 32.4 MiB (99%)<br>
Writing library : libFLAC 1.3.3 <br>
<br>
02 - EC_American Teenager (Mix)_BECKER MASTER 2.flac<br>
Format : FLAC<br>
Format/Info : Free Lossless Audio Codec<br>
File size : 47.1 MiB<br>
Duration : 4 min 18 s<br>
Overall bit rate mode : Variable<br>
Overall bit rate : 1 528 kb/s<br>
Album : Preacher's Daughter (A Capella)<br>
Album/Performer : Ethel Cain<br>
Track name : American Teenager (A Capella)<br>
Track name/Position : 02<br>
Performer : Ethel Cain<br>
Genre : A Cappella<br>
Recorded date : 2022<br>
Writing application : fre:ac v1.1.5<br>
Cover : Yes<br>
Cover type : Cover (front)<br>
Cover MIME : image/jpeg<br>
<br>
Audio<br>
Format : FLAC<br>
Format/Info : Free Lossless Audio Codec<br>
Duration : 4 min 18 s<br>
Bit rate mode : Variable<br>
Bit rate : 1 519 kb/s<br>
Channel(s) : 2 channels<br>
Channel layout : L R<br>
Sampling rate : 44.1 kHz<br>
Bit depth : 24 bits<br>
Compression mode : Lossless<br>
Stream size : 46.8 MiB (99%)<br>
Writing library : libFLAC 1.3.3<br>
<br>
03 - EC_House In Nebraska_BECKER MASTER.flac<br>
Format : FLAC<br>
Format/Info : Free Lossless Audio Codec<br>
File size : 73.4 MiB<br>
Duration : 7 min 46 s<br>
Overall bit rate mode : Variable<br>
Overall bit rate : 1 320 kb/s<br>
Album : Preacher's Daughter (A Capella)<br>
Album/Performer : Ethel Cain<br>
Track name : A House in Nebraska (A Capella)<br>
Track name/Position : 03<br>
Performer : Ethel Cain<br>
Genre : A Cappella<br>
Recorded date : 2022<br>
Writing application : fre:ac v1.1.5<br>
Cover : Yes<br>
Cover type : Cover (front)<br>
Cover MIME : image/jpeg<br>
<br>
Audio<br>
Format : FLAC<br>
Format/Info : Free Lossless Audio Codec<br>
Duration : 7 min 46 s<br>
Bit rate mode : Variable<br>
Bit rate : 1 315 kb/s<br>
Channel(s) : 2 channels<br>
Channel layout : L R<br>
Sampling rate : 44.1 kHz<br>
Bit depth : 24 bits<br>
Compression mode : Lossless<br>
Stream size : 73.1 MiB (100%)<br>
Writing library : libFLAC 1.3.3 <br>
<br>
04 - EC_Western Nights_BECKER MASTER.flac<br>
Format : FLAC<br>
Format/Info : Free Lossless Audio Codec<br>
File size : 56.4 MiB<br>
Duration : 6 min 5 s<br>
Overall bit rate mode : Variable<br>
Overall bit rate : 1 297 kb/s<br>
Album : Preacher's Daughter (A Capella)<br>
Album/Performer : Ethel Cain<br>
Track name : Western Nights (A Capella)<br>
Track name/Position : 04<br>
Performer : Ethel Cain<br>
Genre : A Cappella<br>
Recorded date : 2022<br>
Writing application : fre:ac v1.1.5<br>
Cover : Yes<br>
Cover type : Cover (front)<br>
Cover MIME : image/jpeg<br>
<br>
Audio<br>
Format : FLAC<br>
Format/Info : Free Lossless Audio Codec<br>
Duration : 6 min 5 s<br>
Bit rate mode : Variable<br>
Bit rate : 1 291 kb/s<br>
Channel(s) : 2 channels<br>
Channel layout : L R<br>
Sampling rate : 44.1 kHz<br>
Bit depth : 24 bits<br>
Compression mode : Lossless<br>
Stream size : 56.2 MiB (100%)<br>
Writing library : libFLAC 1.3.3 <br>
<br>
05 - EC_Family Tree_BECKER MASTER.flac<br>
Format : FLAC<br>
Format/Info : Free Lossless Audio Codec<br>
File size : 63.5 MiB<br>
Duration : 7 min 10 s<br>
Overall bit rate mode : Variable<br>
Overall bit rate : 1 237 kb/s<br>
Album : Preacher's Daughter (A Capella)<br>
Album/Performer : Ethel Cain<br>
Track name : Family Tree (A Capella)<br>
Track name/Position : 05<br>
Performer : Ethel Cain<br>
Genre : A Cappella<br>
Recorded date : 2022<br>
Writing application : fre:ac v1.1.5<br>
Cover : Yes<br>
Cover type : Cover (front)<br>
Cover MIME : image/jpeg<br>
<br>
Audio<br>
Format : FLAC<br>
Format/Info : Free Lossless Audio Codec<br>
Duration : 7 min 10 s<br>
Bit rate mode : Variable<br>
Bit rate : 1 232 kb/s<br>
Channel(s) : 2 channels<br>
Channel layout : L R<br>
Sampling rate : 44.1 kHz<br>
Bit depth : 24 bits<br>
Compression mode : Lossless<br>
Stream size : 63.2 MiB (100%)<br>
Writing library : libFLAC 1.3.3 <br>
<br>
06 - EC_Hard Times_BECKER MASTER.flac<br>
Format : FLAC<br>
Format/Info : Free Lossless Audio Codec<br>
File size : 51.4 MiB<br>
Duration : 5 min 3 s<br>
Overall bit rate mode : Variable<br>
Overall bit rate : 1 423 kb/s<br>
Album : Preacher's Daughter (A Capella)<br>
Album/Performer : Ethel Cain<br>
Track name : Hard Times (A Capella)<br>
Track name/Position : 06<br>
Performer : Ethel Cain<br>
Genre : A Cappella<br>
Recorded date : 2022<br>
Writing application : fre:ac v1.1.5<br>
Cover : Yes<br>
Cover type : Cover (front)<br>
Cover MIME : image/jpeg<br>
<br>
Audio<br>
Format : FLAC<br>
Format/Info : Free Lossless Audio Codec<br>
Duration : 5 min 3 s<br>
Bit rate mode : Variable<br>
Bit rate : 1 415 kb/s<br>
Channel(s) : 2 channels<br>
Channel layout : L R<br>
Sampling rate : 44.1 kHz<br>
Bit depth : 24 bits<br>
Compression mode : Lossless<br>
Stream size : 51.1 MiB (99%)<br>
Writing library : libFLAC 1.3.3 <br>
<br>
06 - EC_Hard Times_BECKER MASTER.flac<br>
Format : FLAC<br>
Format/Info : Free Lossless Audio Codec<br>
File size : 51.4 MiB<br>
Duration : 5 min 3 s<br>
Overall bit rate mode : Variable<br>
Overall bit rate : 1 423 kb/s<br>
Album : Preacher's Daughter (A Capella)<br>
Album/Performer : Ethel Cain<br>
Track name : Hard Times (A Capella)<br>
Track name/Position : 06<br>
Performer : Ethel Cain<br>
Genre : A Cappella<br>
Recorded date : 2022<br>
Writing application : fre:ac v1.1.5<br>
Cover : Yes<br>
Cover type : Cover (front)<br>
Cover MIME : image/jpeg<br>
<br>
Audio<br>
Format : FLAC<br>
Format/Info : Free Lossless Audio Codec<br>
Duration : 5 min 3 s<br>
Bit rate mode : Variable<br>
Bit rate : 1 415 kb/s<br>
Channel(s) : 2 channels<br>
Channel layout : L R<br>
Sampling rate : 44.1 kHz<br>
Bit depth : 24 bits<br>
Compression mode : Lossless<br>
Stream size : 51.1 MiB (99%)<br>
Writing library : libFLAC 1.3.3 <br>
<br>
07 - EC_Thoroughfare_BECKER MASTER.flac<br>
Format : FLAC<br>
Format/Info : Free Lossless Audio Codec<br>
File size : 94.4 MiB<br>
Duration : 9 min 27 s<br>
Overall bit rate mode : Variable<br>
Overall bit rate : 1 394 kb/s<br>
Album : Preacher's Daughter (A Capella)<br>
Album/Performer : Ethel Cain<br>
Track name : Thoroughfare (A Capella)<br>
Track name/Position : 07<br>
Performer : Ethel Cain<br>
Genre : A Cappella<br>
Recorded date : 2022<br>
Writing application : fre:ac v1.1.5<br>
Cover : Yes<br>
Cover type : Cover (front)<br>
Cover MIME : image/jpeg<br>
<br>
Audio<br>
Format : FLAC<br>
Format/Info : Free Lossless Audio Codec<br>
Duration : 9 min 27 s<br>
Bit rate mode : Variable<br>
Bit rate : 1 390 kb/s<br>
Channel(s) : 2 channels<br>
Channel layout : L R<br>
Sampling rate : 44.1 kHz<br>
Bit depth : 24 bits<br>
Compression mode : Lossless<br>
Stream size : 94.1 MiB (100%)<br>
Writing library : libFLAC 1.3.3 <br>
<br>
08 - EC_Gibson Girl (GG Mix Feb1)_BECKER MASTER.flac<br>
Format : FLAC<br>
Format/Info : Free Lossless Audio Codec<br>
File size : 55.7 MiB<br>
Duration : 5 min 42 s<br>
Overall bit rate mode : Variable<br>
Overall bit rate : 1 366 kb/s<br>
Album : Preacher's Daughter (A Capella)<br>
Album/Performer : Ethel Cain<br>
Track name : Gibson Girl (A Capella)<br>
Track name/Position : 08<br>
Performer : Ethel Cain<br>
Genre : A Cappella<br>
Recorded date : 2022<br>
Writing application : fre:ac v1.1.5<br>
Cover : Yes<br>
Cover type : Cover (front)<br>
Cover MIME : image/jpeg<br>
<br>
Audio<br>
Format : FLAC<br>
Format/Info : Free Lossless Audio Codec<br>
Duration : 5 min 42 s<br>
Bit rate mode : Variable<br>
Bit rate : 1 359 kb/s<br>
Channel(s) : 2 channels<br>
Channel layout : L R<br>
Sampling rate : 44.1 kHz<br>
Bit depth : 24 bits<br>
Compression mode : Lossless<br>
Stream size : 55.4 MiB (100%)<br>
Writing library : libFLAC 1.3.3 <br>
<br>
/09 - EC_Ptolemaea_BECKER MASTER.flac<br>
Format : FLAC<br>
Format/Info : Free Lossless Audio Codec<br>
File size : 59.2 MiB<br>
Duration : 6 min 23 s<br>
Overall bit rate mode : Variable<br>
Overall bit rate : 1 293 kb/s<br>
Album : Preacher's Daughter (A Capella)<br>
Album/Performer : Ethel Cain<br>
Track name : Ptolemaea (A Capella)<br>
Track name/Position : 09<br>
Performer : Ethel Cain<br>
Genre : A Cappella<br>
Recorded date : 2022<br>
Writing application : fre:ac v1.1.5<br>
Cover : Yes<br>
Cover type : Cover (front)<br>
Cover MIME : image/jpeg<br>
<br>
Audio<br>
Format : FLAC<br>
Format/Info : Free Lossless Audio Codec<br>
Duration : 6 min 23 s<br>
Bit rate mode : Variable<br>
Bit rate : 1 287 kb/s<br>
Channel(s) : 2 channels<br>
Channel layout : L R<br>
Sampling rate : 44.1 kHz<br>
Bit depth : 24 bits<br>
Compression mode : Lossless<br>
Stream size : 58.9 MiB (100%)<br>
Writing library : libFLAC 1.3.3 <br>
<br>
10 - EC_August Underground_BECKER MASTER.flac<br>
Format : FLAC<br>
Format/Info : Free Lossless Audio Codec<br>
File size : 28.8 MiB<br>
Duration : 3 min 40 s<br>
Overall bit rate mode : Variable<br>
Overall bit rate : 1 095 kb/s<br>
Album : Preacher's Daughter (A Capella)<br>
Album/Performer : Ethel Cain<br>
Track name : August Underground (A Capella)<br>
Track name/Position : 10<br>
Performer : Ethel Cain<br>
Genre : A Cappella<br>
Recorded date : 2022<br>
Writing application : fre:ac v1.1.5<br>
Cover : Yes<br>
Cover type : Cover (front)<br>
Cover MIME : image/jpeg<br>
<br>
Audio<br>
Format : FLAC<br>
Format/Info : Free Lossless Audio Codec<br>
Duration : 3 min 40 s<br>
Bit rate mode : Variable<br>
Bit rate : 1 084 kb/s<br>
Channel(s) : 2 channels<br>
Channel layout : L R<br>
Sampling rate : 44.1 kHz<br>
Bit depth : 24 bits<br>
Compression mode : Lossless<br>
Stream size : 28.5 MiB (99%)<br>
Writing library : libFLAC 1.3.3 <br>
<br>
11 - EC_Televangelism_BECKER MASTER.flac<br>
Format : FLAC<br>
Format/Info : Free Lossless Audio Codec<br>
File size : 20.3 MiB<br>
Duration : 3 min 3 s<br>
Overall bit rate mode : Variable<br>
Overall bit rate : 924 kb/s<br>
Album : Preacher's Daughter (A Capella)<br>
Album/Performer : Ethel Cain<br>
Track name : Televangelism (A Capella)<br>
Track name/Position : 11<br>
Performer : Ethel Cain<br>
Genre : A Cappella<br>
Recorded date : 2022<br>
Writing application : fre:ac v1.1.5<br>
Cover : Yes<br>
Cover type : Cover (front)<br>
Cover MIME : image/jpeg<br>
<br>
Audio<br>
Format : FLAC<br>
Format/Info : Free Lossless Audio Codec<br>
Duration : 3 min 3 s<br>
Bit rate mode : Variable<br>
Bit rate : 911 kb/s<br>
Channel(s) : 2 channels<br>
Channel layout : L R<br>
Sampling rate : 44.1 kHz<br>
Bit depth : 24 bits<br>
Compression mode : Lossless<br>
Stream size : 20.0 MiB (99%)<br>
Writing library : libFLAC 1.3.3 <br>
<br>
12 - EC_Sun Bleached Files_BECKER MASTER 3 (DeClicked).flac<br>
Format : FLAC<br>
Format/Info : Free Lossless Audio Codec<br>
File size : 74.5 MiB<br>
Duration : 7 min 36 s<br>
Overall bit rate mode : Variable<br>
Overall bit rate : 1 371 kb/s<br>
Album : Preacher's Daughter (A Capella)<br>
Album/Performer : Ethel Cain<br>
Track name : Sun Bleached Files (A Capella)<br>
Track name/Position : 12<br>
Performer : Ethel Cain<br>
Genre : A Cappella<br>
Recorded date : 2022<br>
Writing application : fre:ac v1.1.5<br>
Cover : Yes<br>
Cover type : Cover (front)<br>
Cover MIME : image/jpeg<br>
<br>
Audio<br>
Format : FLAC<br>
Format/Info : Free Lossless Audio Codec<br>
Duration : 7 min 36 s<br>
Bit rate mode : Variable<br>
Bit rate : 1 366 kb/s<br>
Channel(s) : 2 channels<br>
Channel layout : L R<br>
Sampling rate : 44.1 kHz<br>
Bit depth : 24 bits<br>
Compression mode : Lossless<br>
Stream size : 74.2 MiB (100%)<br>
Writing library : libFLAC 1.3.3 <br>
<br>
13 - EC_Strangers_BECKER MASTER 2.flac<br>
Format : FLAC<br>
Format/Info : Free Lossless Audio Codec<br>
File size : 56.4 MiB<br>
Duration : 5 min 44 s<br>
Overall bit rate mode : Variable<br>
Overall bit rate : 1 374 kb/s<br>
Album : Preacher's Daughter (A Capella)<br>
Album/Performer : Ethel Cain<br>
Track name : Strangers (A Capella)<br>
Track name/Position : 13<br>
Performer : Ethel Cain<br>
Genre : A Cappella<br>
Recorded date : 2022<br>
Writing application : fre:ac v1.1.5<br>
Cover : Yes<br>
Cover type : Cover (front)<br>
Cover MIME : image/jpeg<br>
<br>
Audio<br>
Format : FLAC<br>
Format/Info : Free Lossless Audio Codec<br>
Duration : 5 min 44 s<br>
Bit rate mode : Variable<br>
Bit rate : 1 367 kb/s<br>
Channel(s) : 2 channels<br>
Channel layout : L R<br>
Sampling rate : 44.1 kHz<br>
Bit depth : 24 bits<br>
Compression mode : Lossless<br>
Stream size : 56.1 MiB (100%)<br>
Writing library : libFLAC 1.3.3
<div class="messageTextEndMarker">&nbsp;</div>
</blockquote>
</article>]]></description>
                <author><![CDATA[BuffBuffHD]]></author>
                </item>

                
                <item>
                <title><![CDATA[【Cinema Center】SERIES - Ghost Whisperer 2005 COMPLETE [DSN+ 1080p H264 DD+]]]></title>
                <link><![CDATA[https://sharemania.us/threads/ghost-whisperer-2005-complete-dsn-1080p-h264-dd.233384/]]></link>
                <description><![CDATA[<article>
<blockquote class="messageText SelectQuoteContainer ugc baseHtml">
<img src="https://www.themoviedb.org/t/p/original/xWftQWlvdbgZx2uloutTVHc7CNP.jpg" class="bbCodeImage LbImage" alt="[​IMG]" data-url="https://www.themoviedb.org/t/p/original/xWftQWlvdbgZx2uloutTVHc7CNP.jpg" style=""> <br>
<br>
DOWNLOADED FROM THE WEB<br>
<br>
<b>Ripped from DISNEY PLUS. (NOT BY ME)</b><br>
<br>
<b>VIDEO:</b> 1080p H264 Full HD<br>
<br>
<b>AUDIO:</b> English, Latin american <b>(EAC3 5.1 256kbps, AAC 128kbps)<br>
<br>
SUBTITLES:</b> English, Latin american<br>
<br>
<b>TOTAL SIZE: 264GB</b><br>
<br>
<b>EPISODES:</b> 107<br>
<br>
<b>HOST:</b> Telegram<br>
<br>
<div class="bbCodeBlock bbCodeVfcHH HiddenContent">
<div class="attribution type">Hidden Content:</div>
<blockquote>You must either reply or click 'Like' to see the hidden information contained here.</blockquote>
</div>
<div class="messageTextEndMarker">&nbsp;</div>
</blockquote>
</article>]]></description>
                <author><![CDATA[alrl]]></author>
                </item>

                </channel></rss>